<svg width="93" height="91" viewBox="0 0 93 91" fill="none" xmlns="http://www.w3.org/2000/svg">
<path d="M18.4934 25.0876C6.49372 37.5791 -0.00623742 53.072 13.9933 66.0688C25.9938 77.2098 35.4937 84.5607 55.9936 79.563C76.4935 74.5653 84.349 64.2218 84.349 48.5594C84.3489 33.584 73.0913 30.1997 60.9934 17.5914C37.4938 -6.89968 28.2515 14.9295 18.4934 25.0876Z" fill="#92C4FF"/>
<path d="M80.3019 31.1691C80.3019 62.1691 69.3019 67.6689 58.3019 73.233C47.3019 78.7971 27.8019 86.1689 19.8019 72.6689C12.0219 59.5402 20.7768 55.2471 17.3019 43.6691C12.8019 28.6755 18.9722 9.91239 33.8019 12.169C56.8019 15.6689 80.3018 5.99032 80.3019 31.1691Z" fill="#907AFF"/>
</svg>
