<svg width="41" height="42" viewBox="0 0 41 42" fill="none" xmlns="http://www.w3.org/2000/svg">
<path d="M31.0492 5.95807C31.4914 5.95807 31.85 5.59072 31.85 5.13772C31.85 4.68473 31.4914 4.31738 31.0492 4.31738H31.0446C30.6024 4.31738 30.2461 4.68473 30.2461 5.13772C30.2461 5.59072 30.607 5.95807 31.0492 5.95807Z" fill="white"/>
<path d="M35.371 5.95807C35.8132 5.95807 36.1718 5.59072 36.1718 5.13772C36.1718 4.68473 35.8132 4.31738 35.371 4.31738H35.3664C34.9242 4.31738 34.5679 4.68473 34.5679 5.13772C34.5679 5.59072 34.9288 5.95807 35.371 5.95807Z" fill="white"/>
<path d="M26.7274 5.95807C27.1696 5.95807 27.5282 5.59072 27.5282 5.13772C27.5282 4.68473 27.1696 4.31738 26.7274 4.31738H26.7229C26.2807 4.31738 25.9243 4.68473 25.9243 5.13772C25.9243 5.59072 26.2851 5.95807 26.7274 5.95807Z" fill="white"/>
<path d="M5.62646 5.95807H17.6592C18.1014 5.95807 18.4599 5.59072 18.4599 5.13772C18.4599 4.68473 18.1014 4.31738 17.6592 4.31738H5.62646C5.18419 4.31738 4.82568 4.68473 4.82568 5.13772C4.82568 5.59072 5.18419 5.95807 5.62646 5.95807Z" fill="white"/>
<path d="M38.431 0H2.56907C1.15248 0 0 1.18055 0 2.63174V33.0076C0 34.4587 1.15248 35.6393 2.56907 35.6393H8.97804C9.4891 36.4319 10.0822 37.1766 10.7532 37.8639C13.357 40.5313 16.8185 42.0003 20.5 42.0003C24.1816 42.0003 27.643 40.5313 30.2469 37.8639C30.9219 37.1723 31.5121 36.4262 32.0176 35.6393H38.431C39.8475 35.6393 41 34.4587 41 33.0076V2.63174C41 1.18055 39.8475 0 38.431 0V0ZM2.56907 1.64068H38.431C38.9644 1.64068 39.3984 2.08531 39.3984 2.63174V8.6386H1.60156V2.63174C1.60156 2.08531 2.03559 1.64068 2.56907 1.64068V1.64068ZM38.431 33.9986H32.9222C35.3821 28.7454 34.491 22.2444 30.2469 17.8965C28.0891 15.6861 25.3537 14.2992 22.3364 13.8859C19.4161 13.4861 16.3954 14.0661 13.8305 15.5194C13.4435 15.7387 13.3033 16.2378 13.5173 16.6343C13.7314 17.0308 14.2188 17.1743 14.6056 16.9551C19.3282 14.2791 25.2944 15.1433 29.1143 19.0566C33.8637 23.922 33.8637 31.8385 29.1143 36.7037C26.813 39.0612 23.7537 40.3596 20.5 40.3596C17.2463 40.3596 14.187 39.0612 11.8857 36.7037C8.06627 32.7911 7.22273 26.6801 9.83423 21.8431C10.0483 21.4466 9.90807 20.9475 9.52105 20.7281C9.13419 20.5089 8.64684 20.6525 8.43279 21.049C7.01412 23.6764 6.44789 26.7706 6.83827 29.7614C7.03294 31.2524 7.44943 32.6759 8.07011 33.9985H2.56907C2.03559 33.9985 1.60156 33.5539 1.60156 33.0075V10.2791H39.3984V33.0075C39.3984 33.554 38.9644 33.9986 38.431 33.9986Z" fill="white"/>
<path d="M20.499 32.6062C20.9413 32.6062 21.2998 32.2388 21.2998 31.7858V29.8279C21.2998 29.3749 20.9412 29.0076 20.499 29.0076C20.0568 29.0076 19.6982 29.3749 19.6982 29.8279V31.7858C19.6982 32.2389 20.0568 32.6062 20.499 32.6062Z" fill="white"/>
<path d="M20.499 37.2825C24.2824 37.2825 27.3604 34.1293 27.3604 30.2535V27.1166C27.3604 26.0552 26.6154 25.1692 25.6331 24.9773V22.8264C25.6331 20.4046 23.7098 18.4343 21.3457 18.4343H19.6524C17.2884 18.4343 15.3651 20.4046 15.3651 22.8264V24.9776C14.3826 25.1702 13.6377 26.0559 13.6377 27.1166V30.2535C13.6376 34.1293 16.7157 37.2825 20.499 37.2825V37.2825ZM16.9666 22.8264C16.9666 21.3093 18.1714 20.075 19.6524 20.075H21.3457C22.8267 20.075 24.0315 21.3093 24.0315 22.8264V24.9382H16.9666V22.8264ZM15.2392 27.1166C15.2392 26.8251 15.4806 26.5789 15.7663 26.5789H25.234C25.5185 26.5789 25.7588 26.8251 25.7588 27.1166V30.2535C25.7588 33.2246 23.3993 35.6418 20.499 35.6418C17.5988 35.6418 15.2392 33.2246 15.2392 30.2535V27.1166Z" fill="white"/>
<path d="M10.7536 17.8958C10.4409 18.2162 10.4409 18.7356 10.7536 19.056C10.91 19.2162 11.1149 19.2963 11.3198 19.2963C11.5247 19.2963 11.7297 19.2162 11.886 19.056L11.8883 19.0537C12.201 18.7334 12.1999 18.2151 11.8872 17.8948C11.5745 17.5744 11.0664 17.5755 10.7536 17.8958V17.8958Z" fill="white"/>
</svg>
