<svg width="44" height="39" viewBox="0 0 44 39" fill="none" xmlns="http://www.w3.org/2000/svg">
<path d="M16.5839 15.6603C18.2534 15.6603 19.6068 14.3069 19.6068 12.6374C19.6068 10.9679 18.2534 9.6145 16.5839 9.6145C14.9144 9.6145 13.561 10.9679 13.561 12.6374C13.561 14.3069 14.9144 15.6603 16.5839 15.6603Z" fill="white"/>
<path d="M41.3969 23.7634C39.9695 22.4198 38.1641 21.5382 36.1908 21.2863V5.91985C36.1908 4.28244 35.5191 2.81298 34.4695 1.72137C33.3779 0.629771 31.9084 0 30.271 0H5.91985C4.28244 0 2.81298 0.671756 1.72137 1.72137C0.629771 2.81298 0 4.28244 0 5.91985V25.2748V27.0802V30.9847C0 32.6221 0.671756 34.0916 1.72137 35.1832C2.81298 36.2748 4.28244 36.9046 5.91985 36.9046H29.4733C31.0267 38.1641 32.958 38.9618 35.0992 38.9618C37.5763 38.9618 39.8015 37.9542 41.3969 36.3588C42.9924 34.7634 44 32.5382 44 30.0611C44 27.584 42.9924 25.3588 41.3969 23.7634ZM2.22519 5.91985C2.22519 4.91221 2.64504 3.98855 3.31679 3.35878C3.98855 2.68702 4.91221 2.26718 5.91985 2.26718H30.271C31.2786 2.26718 32.2023 2.68702 32.874 3.35878C33.5458 4.03053 33.9656 4.9542 33.9656 5.96183V19.0611L27.7519 12.8473C27.3321 12.4275 26.6183 12.3855 26.1565 12.8473L16.7939 22.2519L10.4542 15.8702C10.0344 15.4504 9.32061 15.4084 8.85878 15.8702L2.22519 22.5878V5.91985ZM5.87786 34.7634V34.6794C4.87023 34.6794 3.94656 34.2595 3.27481 33.5878C2.64504 32.916 2.22519 31.9924 2.22519 30.9847V27.0802V25.7786L9.65649 18.3053L15.9962 24.645C16.416 25.0649 17.1298 25.0649 17.5916 24.645L26.9542 15.2405L33.084 21.4122C32.958 21.4542 32.8321 21.4962 32.7061 21.5382C32.5382 21.5802 32.3702 21.6221 32.1603 21.7061C31.9924 21.7481 31.8244 21.8321 31.6565 21.874C31.5305 21.916 31.4466 21.958 31.3206 22.042C31.1527 22.126 31.0267 22.1679 30.9008 22.2519C30.6908 22.3779 30.4809 22.5038 30.271 22.6298C30.145 22.7137 30.0611 22.7557 29.9351 22.8397C29.8511 22.8817 29.8092 22.9237 29.7252 22.9657C29.3473 23.2176 29.0114 23.5114 28.7176 23.8473C27.1221 25.4427 26.1145 27.6679 26.1145 30.145C26.1145 30.7748 26.1985 31.3626 26.3244 31.9924C26.3664 32.1603 26.4084 32.2863 26.4504 32.4542C26.5763 32.874 26.7023 33.2939 26.8702 33.7137V33.7557C27.0382 34.0916 27.2061 34.4695 27.416 34.7634H5.87786ZM39.7595 34.7634C38.542 35.9809 36.9046 36.6947 35.0573 36.6947C33.2939 36.6947 31.6565 35.9809 30.4809 34.8473C30.313 34.6794 30.145 34.4695 29.9771 34.3015C29.8511 34.1756 29.7252 34.0076 29.5992 33.8817C29.4313 33.6718 29.3053 33.4198 29.1794 33.1679C29.0954 33 29.0114 32.874 28.9275 32.7061C28.8435 32.4962 28.7595 32.2443 28.7176 31.9924C28.6756 31.8244 28.5916 31.6145 28.5496 31.4466C28.4656 31.0267 28.4237 30.5649 28.4237 30.1031C28.4237 28.2557 29.1794 26.6183 30.355 25.4008C31.5305 24.1832 33.2099 23.4695 35.0573 23.4695C36.9046 23.4695 38.542 24.2252 39.7595 25.4008C40.9771 26.6183 41.6908 28.2557 41.6908 30.1031C41.6908 31.9084 40.9351 33.5458 39.7595 34.7634Z" fill="white"/>
<path d="M35.8552 25.5688C35.7712 25.4848 35.6452 25.4009 35.4773 25.3169C35.3513 25.2749 35.2254 25.2329 35.0994 25.2329C35.0574 25.2329 35.0574 25.2329 35.0574 25.2329C35.0155 25.2329 35.0155 25.2329 35.0155 25.2329C34.8895 25.2329 34.7636 25.2749 34.6376 25.3169C34.5116 25.3589 34.3857 25.4428 34.2597 25.5688L31.6567 28.1718C31.2368 28.5917 31.2368 29.3054 31.6567 29.7673C32.0765 30.1871 32.7903 30.1871 33.2521 29.7673L33.9239 29.0955V33.7138C33.9239 34.3436 34.4277 34.8474 35.0574 34.8474C35.6872 34.8474 36.191 34.3436 36.191 33.7138V29.0955L36.8628 29.7673C37.2826 30.1871 37.9964 30.1871 38.4582 29.7673C38.8781 29.3474 38.8781 28.6337 38.4582 28.1718L35.8552 25.5688Z" fill="white"/>
</svg>
