<svg width="55" height="55" viewBox="0 0 55 55" fill="none" xmlns="http://www.w3.org/2000/svg">
<path d="M14.0312 18.9365C14.2368 18.9365 14.4449 18.8773 14.6287 18.7531L14.6467 18.7409C15.1369 18.4099 15.2661 17.7431 14.9354 17.2517C14.6052 16.7604 13.9401 16.6307 13.45 16.9622L13.432 16.9744C12.9418 17.3054 12.8126 17.9726 13.1428 18.4636C13.3497 18.7707 13.6871 18.9365 14.0312 18.9365Z" fill="white"/>
<path d="M48.8748 36.09C49.0065 35.1249 49.0762 34.1405 49.0762 33.1397C49.0762 27.1211 46.6017 21.6162 42.5742 17.668C42.5486 17.6403 42.5222 17.6143 42.4941 17.59C39.4292 14.6161 35.4781 12.5395 31.0381 11.8119C30.6798 10.2047 29.2476 9 27.5398 9C25.8302 9 24.3968 10.2047 24.0381 11.8114C21.6714 12.1979 19.4021 12.9754 17.2822 14.1302C16.7632 14.4131 16.571 15.0647 16.853 15.585C17.0472 15.943 17.4148 16.1461 17.7946 16.1461C17.967 16.1461 18.142 16.1041 18.3044 16.0156C20.1625 15.0035 22.1473 14.3128 24.2172 13.9561C24.7527 15.2695 26.0401 16.1977 27.5398 16.1977C29.0378 16.1977 30.3235 15.2699 30.8589 13.9565C33.8185 14.468 36.533 15.6467 38.8556 17.3256H34.7672C32.5643 17.3256 30.7721 19.1237 30.7721 21.3338C30.7721 23.5422 32.5643 25.339 34.7672 25.339C35.7886 25.339 36.619 26.1749 36.619 27.2017C36.619 28.2289 35.7886 29.0644 34.7672 29.0644H34.1483C31.947 29.0644 30.1561 30.8612 30.1561 33.0701C30.1561 35.2802 31.947 37.0782 34.1483 37.0782H46.5367C44.7176 45.9321 36.8909 52.6095 27.5398 52.6095C23.2798 52.6095 19.3367 51.2231 16.1333 48.8779H20.233C22.436 48.8779 24.2281 47.0802 24.2281 44.8697C24.2281 42.6612 22.436 40.8644 20.233 40.8644C19.2116 40.8644 18.3812 40.029 18.3812 39.0018C18.3812 37.9762 19.2116 37.142 20.233 37.142H20.849C23.052 37.142 24.8441 35.344 24.8441 33.1338C24.8441 30.9233 23.052 29.1252 20.849 29.1252H8.54917C9.14922 26.2337 10.4022 23.5246 12.2586 21.145C12.6224 20.6784 12.5401 20.004 12.0744 19.639C11.609 19.2739 10.9364 19.3566 10.5721 19.8236C7.58112 23.6585 6 28.2633 6 33.1397C6 39.1197 8.43294 44.5403 12.3572 48.4574C12.4193 48.538 12.4919 48.6093 12.5741 48.6697C16.4522 52.4345 21.7306 54.755 27.5398 54.755C38.3701 54.755 47.357 46.6896 48.855 36.2289C48.8647 36.1836 48.871 36.1375 48.8748 36.09ZM8.22816 31.2712H20.849C21.8716 31.2712 22.7037 32.1066 22.7037 33.1338C22.7037 34.1606 21.8716 34.9965 20.849 34.9965H20.233C18.0317 34.9965 16.2407 36.7929 16.2407 39.0018C16.2407 41.2119 18.0317 43.0099 20.233 43.0099C21.2556 43.0099 22.0877 43.8441 22.0877 44.8697C22.0877 45.8965 21.2556 46.7324 20.233 46.7324H13.6651C10.249 43.221 8.14046 38.4231 8.14046 33.1397C8.14046 32.5111 8.17068 31.888 8.22816 31.2712ZM27.5398 14.0518C26.7408 14.0518 26.0912 13.3993 26.0912 12.5974C26.0912 11.7967 26.7408 11.1455 27.5398 11.1455C28.3366 11.1455 28.9849 11.7967 28.9849 12.5974C28.9849 13.3993 28.3366 14.0518 27.5398 14.0518ZM34.1483 34.9323C33.127 34.9323 32.2965 34.0969 32.2965 33.0696C32.2965 32.0445 33.127 31.2099 34.1483 31.2099H34.7672C36.9686 31.2099 38.7595 29.4118 38.7595 27.2017C38.7595 24.9916 36.9686 23.1935 34.7672 23.1935C33.7446 23.1935 32.9125 22.3593 32.9125 21.3338C32.9125 20.3066 33.7446 19.4711 34.7672 19.4711H41.3477C44.8166 23.0064 46.9357 27.853 46.9357 33.1397C46.9357 33.744 46.9068 34.3419 46.8526 34.9323H34.1483Z" fill="white"/>
</svg>
