<svg width="46" height="46" viewBox="0 0 46 46" fill="none" xmlns="http://www.w3.org/2000/svg">
<g clip-path="url(#clip0_27_975)">
<path d="M21.6523 5.39062C16.4628 5.68858 11.5983 7.7034 7.71777 11.1624L13.4723 16.9166C14.7386 16.467 16.101 16.2214 17.5195 16.2214C18.97 16.2214 20.3619 16.4779 21.6523 16.9471V5.39062Z" fill="white"/>
<path d="M26.884 20.6504L37.7695 10.7188C33.9771 7.53108 29.3112 5.6756 24.3477 5.39062V18.3316C25.2987 18.9816 26.153 19.7632 26.884 20.6504Z" fill="white"/>
<path d="M0 28.3506V29.6982H5.39062V28.3506C5.39062 24.0939 7.59496 20.3429 10.9216 18.1779L5.81212 13.0684C2.05518 17.2829 0 22.6585 0 28.3506Z" fill="white"/>
<path d="M38.853 29.6983H45.9998V28.3506C45.9998 26.3909 45.7552 24.4691 45.2828 22.6189L38.853 29.6983Z" fill="white"/>
<path d="M22.9995 29.7437C21.5595 29.7437 20.2056 30.3045 19.1875 31.3226C17.086 33.4244 17.086 36.8441 19.1875 38.946C20.2056 39.9641 21.5595 40.5249 22.9995 40.5249C24.4391 40.5249 25.7931 39.9641 26.8112 38.946C28.913 36.8441 28.913 33.4244 26.8112 31.3226C25.7931 30.3045 24.4391 29.7437 22.9995 29.7437Z" fill="white"/>
<path d="M40.2668 12.0889L23.8247 27.09C25.6725 27.276 27.3862 28.0856 28.717 29.4164C30.0801 30.7795 30.8525 32.5125 31.0371 34.2954L46 17.8203V12.0889H40.2668Z" fill="white"/>
</g>
<defs>
<clipPath id="clip0_27_975">
<rect width="46" height="46" fill="white"/>
</clipPath>
</defs>
</svg>
